<svg width="77" height="87" viewBox="0 0 77 87" fill="none" xmlns="http://www.w3.org/2000/svg">
<path d="M76.25 60.971V4.06473C76.25 1.81219 74.4378 0 72.1853 0H16.6339C7.65765 0 0.375 7.28265 0.375 16.2589V70.4554C0.375 79.4316 7.65765 86.7143 16.6339 86.7143H72.1853C74.4378 86.7143 76.25 84.9021 76.25 82.6496V79.9397C76.25 78.6695 75.6572 77.5178 74.7427 76.7726C74.0313 74.1644 74.0313 66.7294 74.7427 64.1212C75.6572 63.3929 76.25 62.2412 76.25 60.971ZM22.0536 22.6948C22.0536 22.1359 22.5109 21.6786 23.0698 21.6786H58.9749C59.5338 21.6786 59.9911 22.1359 59.9911 22.6948V26.082C59.9911 26.6409 59.5338 27.0982 58.9749 27.0982H23.0698C22.5109 27.0982 22.0536 26.6409 22.0536 26.082V22.6948ZM22.0536 33.534C22.0536 32.9751 22.5109 32.5179 23.0698 32.5179H58.9749C59.5338 32.5179 59.9911 32.9751 59.9911 33.534V36.9213C59.9911 37.4802 59.5338 37.9375 58.9749 37.9375H23.0698C22.5109 37.9375 22.0536 37.4802 22.0536 36.9213V33.534ZM64.9704 75.875H16.6339C13.6362 75.875 11.2143 73.4531 11.2143 70.4554C11.2143 67.4746 13.6531 65.0357 16.6339 65.0357H64.9704C64.6486 67.9318 64.6486 72.9789 64.9704 75.875Z" fill="#21DDF7"/>
</svg>