<svg width="197" height="225" viewBox="0 0 197 225" fill="none" xmlns="http://www.w3.org/2000/svg">
<path d="M196.625 158.002V10.5335C196.625 4.69618 191.929 0 186.092 0H42.1339C18.8725 0 0 18.8725 0 42.1339V182.58C0 205.842 18.8725 224.714 42.1339 224.714H186.092C191.929 224.714 196.625 220.018 196.625 214.181V207.158C196.625 203.867 195.089 200.882 192.719 198.951C190.875 192.192 190.875 172.925 192.719 166.166C195.089 164.278 196.625 161.294 196.625 158.002ZM56.1786 58.8119C56.1786 57.3636 57.3636 56.1786 58.8119 56.1786H151.858C153.306 56.1786 154.491 57.3636 154.491 58.8119V67.5898C154.491 69.0382 153.306 70.2232 151.858 70.2232H58.8119C57.3636 70.2232 56.1786 69.0382 56.1786 67.5898V58.8119ZM56.1786 86.9012C56.1786 85.4529 57.3636 84.2679 58.8119 84.2679H151.858C153.306 84.2679 154.491 85.4529 154.491 86.9012V95.6791C154.491 97.1275 153.306 98.3125 151.858 98.3125H58.8119C57.3636 98.3125 56.1786 97.1275 56.1786 95.6791V86.9012ZM167.395 196.625H42.1339C34.3655 196.625 28.0893 190.349 28.0893 182.58C28.0893 174.856 34.4094 168.536 42.1339 168.536H167.395C166.561 176.041 166.561 189.12 167.395 196.625Z" fill="#21DDF7"/>
</svg>